<?xml version="1.0" encoding="UTF-8" standalone="no"?>
<svg width="86px" height="88px" viewBox="0 0 86 88" version="1.1" xmlns="http://www.w3.org/2000/svg" xmlns:xlink="http://www.w3.org/1999/xlink" xmlns:sketch="http://www.bohemiancoding.com/sketch/ns">
    <!-- Generator: Sketch 3.3.2 (12043) - http://www.bohemiancoding.com/sketch -->
    <title>noun_64059_cc</title>
    <desc>Created with Sketch.</desc>
    <defs></defs>
    <g id="Page-1" stroke="none" stroke-width="1" fill="none" fill-rule="evenodd" sketch:type="MSPage">
        <g id="noun_64059_cc" sketch:type="MSLayerGroup" fill="#474044">
            <path d="M37.6744031,71.5244444 C37.9592298,77.2248889 38.2440565,83.1404444 38.2440565,87.9804444 L0.55198973,87.9804444 C0.55198973,46.5715556 3.78002567,44.4204444 3.78002567,44.4204444 C7.67265725,42.6995556 15.6478049,39.7955556 17.2618228,38.3973333 L17.9264185,37.5368889 C17.9264185,37.5368889 21.5342234,43.56 23.812837,57.3271111 L25.7116816,41.0862222 L24.3824904,38.72 C18.3061874,37.1066667 19.0657253,34.6328889 19.0657253,34.6328889 L19.0657253,30.6533333 C17.8314763,28.5022222 17.2618228,25.2755556 17.2618228,25.2755556 C16.6921694,24.6302222 16.0275738,25.168 15.8376893,23.3395556 C15.6478049,21.5111111 15.6478049,19.36 15.4579204,17.6391111 C15.2680359,15.8106667 16.4073427,16.2408889 16.4073427,16.2408889 C16.4073427,16.2408889 16.122516,13.1217778 17.3567651,7.42133333 C17.8314763,5.27022222 18.2112452,3.76444444 19.7303209,2.58133333 C21.8190501,1.07555556 23.1482413,0.430222222 26.8509884,0.430222222 C30.6486778,0.430222222 31.8829268,1.07555556 33.971656,2.58133333 C35.4907317,3.65688889 35.8705006,5.27022222 36.3452118,7.42133333 C37.5794608,13.1217778 37.2946341,16.2408889 37.2946341,16.2408889 C37.2946341,16.2408889 38.3389987,15.8106667 38.2440565,17.6391111 C38.054172,19.4675556 38.1491142,21.5111111 37.8642875,23.3395556 C37.6744031,25.168 36.9148652,24.6302222 36.440154,25.2755556 C36.440154,25.2755556 35.8705006,28.5022222 34.6362516,30.6533333 L34.6362516,34.6328889 C34.6362516,34.6328889 35.3957895,37.1066667 29.3194865,38.72 L27.9902953,41.0862222 L29.8891399,57.3271111 C32.1677535,43.4524444 35.7755584,37.5368889 35.7755584,37.5368889 L36.440154,38.3973333 C37.3895764,39.2577778 40.7125546,40.656 44.0355327,42.0542222 L43.9405905,42.0542222 L43.4658793,42.3768889 C43.1810526,42.592 36.9148652,47.1093333 36.9148652,57.0044444 C37.1996919,60.984 37.4845186,66.1466667 37.6744031,71.5244444 L37.6744031,71.5244444 Z M38.2440565,87.9804444 L38.2440565,87.9804444 L43.9405905,87.9804444 L43.9405905,87.9804444 L41.0923235,87.9804444 L38.2440565,87.9804444 L38.2440565,87.9804444 Z M80.7781772,45.0657778 C77.7400257,44.3128889 75.4614121,43.4524444 73.6575096,42.592 C71.2839538,46.7866667 67.0115533,50.336 62.3593838,50.336 C58.7515789,50.336 55.6184852,48.1848889 53.4348139,45.0657778 C52.8651605,44.3128889 52.3904493,43.4524444 52.0106804,42.592 C51.1562003,43.0222222 50.1118357,43.4524444 48.9725289,43.8826667 C47.8332221,44.3128889 46.598973,44.6355556 45.1748395,44.9582222 C45.1748395,44.9582222 39.9530167,48.6151111 39.9530167,56.7893333 C39.9530167,65.0711111 40.9973813,68.5128889 40.9973813,87.7653333 L43.8456483,87.7653333 L53.1499872,87.7653333 L84.765751,87.7653333 C84.765751,68.4053333 85.8101155,64.9635556 85.8101155,56.7893333 C86,48.7226667 80.7781772,45.0657778 80.7781772,45.0657778 L80.7781772,45.0657778 Z M57.4223877,33.7724444 C57.4223877,35.4933333 58.2768678,38.8275556 53.7196406,41.8391111 C54.0994095,42.6995556 54.5741207,43.4524444 55.1437741,44.0977778 C56.9476765,46.5715556 59.5111168,48.2924444 62.3593838,48.2924444 C66.2520154,48.2924444 69.9547625,45.2808889 71.9485494,41.7315556 C67.6761489,38.72 68.530629,35.4933333 68.530629,33.88 C74.1322208,33.88 74.8917587,31.4062222 80.2085237,31.4062222 C69.2901669,26.6737778 80.303466,2.36622222 62.9290372,2.36622222 C45.5546085,2.36622222 56.5679076,26.6737778 45.6495507,31.4062222 C51.1562003,31.1911111 51.8207959,33.7724444 57.4223877,33.7724444 L57.4223877,33.7724444 L57.4223877,33.7724444 Z" id="Shape" sketch:type="MSShapeGroup"></path>
        </g>
    </g>
</svg>