<?xml version="1.0" encoding="UTF-8" standalone="no"?>
<svg width="50px" height="88px" viewBox="0 0 50 88" version="1.1" xmlns="http://www.w3.org/2000/svg" xmlns:xlink="http://www.w3.org/1999/xlink" xmlns:sketch="http://www.bohemiancoding.com/sketch/ns">
    <!-- Generator: Sketch 3.3.2 (12043) - http://www.bohemiancoding.com/sketch -->
    <title>noun_66328_cc</title>
    <desc>Created with Sketch.</desc>
    <defs></defs>
    <g id="Page-1" stroke="none" stroke-width="1" fill="none" fill-rule="evenodd" sketch:type="MSPage">
        <g id="noun_66328_cc" sketch:type="MSLayerGroup">
            <g id="Group" sketch:type="MSShapeGroup">
                <path d="M17.7203704,46.1770833 C17.7203704,46.1770833 20.1731481,45.43825 21.1962963,44.6590833 C21.3222222,44.5188333 21.4472222,44.3666667 21.5759259,44.198 C21.5777778,44.1943333 21.5787037,44.1915833 21.5805556,44.1879167 C21.6,44.1283333 21.7574074,43.6608333 21.7574074,43.5315833 C21.7574074,43.5315833 21.7601852,43.5508333 21.7666667,43.5838333 C21.8092593,43.2703333 21.762963,43.0466667 21.762963,43.0466667 C21.7657407,43.0494167 21.7694444,43.0521667 21.7722222,43.0549167 C21.3574074,42.4755833 21.0277778,41.8091667 20.837037,41.1253333 C20.7583333,41.0868333 20.4861111,40.9190833 20.3972222,40.37 C20.3972222,40.37 20.1435185,39.4670833 20.2824074,39.1224167 C20.2657407,39.0848333 19.8722222,38.17275 20.0351852,36.71525 C20.0351852,36.71525 20.6222222,33.5225 23.3638889,33.0650833 C23.3638889,33.0650833 25.612963,32.516 27.1231481,33.4308333 C28.7555556,34.0413333 29.0648148,35.4135833 29.0648148,35.4135833 C29.9324074,36.8646667 29.3185185,38.7465833 29.2814815,38.85475 C29.3990741,39.0371667 29.4740741,39.4001667 29.2185185,40.1105833 C29.2185185,40.1105833 29.0212963,41.0391667 28.6361111,41.4195833 C28.4092593,42.03925 28.0694444,42.6488333 27.6481481,43.1814167 C27.6685185,43.1621667 27.6777778,43.15025 27.6777778,43.15025 C27.6712963,43.2749167 27.6740741,43.3895 27.6842593,43.49675 C27.6990741,43.4353333 27.7037037,43.3995833 27.7037037,43.3995833 C27.7037037,43.5095833 27.8240741,43.95325 27.8740741,44.1265 C27.8740741,44.1265 27.8740741,44.1265 27.8740741,44.1274167 C27.8851852,44.1695833 27.8935185,44.1970833 27.8935185,44.1970833 L27.8935185,44.20625 C27.9027778,44.2273333 27.912963,44.2520833 27.925,44.2795833 C28.0425926,44.5050833 28.4277778,44.946 29.6935185,45.386 C29.6935185,45.386 33.0824074,46.4438333 33.6361111,47.663 C33.6361111,47.663 34.9685185,48.6245833 35.1027778,51.1866667 C36.5981481,49.1223333 37.4824074,46.5978333 37.4824074,43.87075 C37.4824074,36.93525 31.7824074,31.2913333 24.7759259,31.2913333 C17.7694444,31.2913333 12.0675926,36.9343333 12.0685185,43.87075 C12.0685185,46.64 12.9777778,49.1993333 14.5148148,51.2783333 C14.6666667,50.457 15.0861111,48.8280833 16.1990741,47.1964167 C16.1990741,47.19275 16.6509259,46.5831667 17.7203704,46.1770833 L17.7203704,46.1770833 Z" id="Shape"></path>
                <path d="M20.2944444,5.08933333 L29.7138889,5.08933333 C29.9972222,5.08933333 30.2268519,4.862 30.2268519,4.58241667 C30.2268519,4.30191667 29.9972222,4.07458333 29.7138889,4.07458333 L20.2944444,4.07458333 C20.0111111,4.07458333 19.7824074,4.30191667 19.7824074,4.58241667 C19.7824074,4.862 20.0111111,5.08933333 20.2944444,5.08933333 L20.2944444,5.08933333 Z" id="Shape"></path>
                <ellipse id="Oval" cx="25.0425926" cy="81.0351667" rx="2.89907407" ry="2.87008333"></ellipse>
                <path d="M5.06666667,74.5305 L44.9333333,74.5305 L44.9333333,8.68633333 L5.06666667,8.68633333 L5.06666667,74.5305 L5.06666667,74.5305 Z M24.7759259,30.1170833 C32.4342593,30.1170833 38.6648148,36.2853333 38.6648148,43.8670833 C38.6648148,51.4488333 32.4342593,57.6170833 24.7759259,57.6170833 C17.1175926,57.6170833 10.887037,51.4488333 10.887037,43.8670833 C10.887037,36.28625 17.1166667,30.1170833 24.7759259,30.1170833 L24.7759259,30.1170833 Z" id="Shape"></path>
                <path d="M25,57.6170833 C32.6583333,57.6170833 38.8888889,51.4488333 38.8888889,43.8670833 C38.8888889,36.2853333 32.6583333,30.1170833 25,30.1170833 C17.3416667,30.1170833 11.1111111,36.2853333 11.1111111,43.8670833 C11.1111111,51.44975 17.3416667,57.6170833 25,57.6170833 L25,57.6170833 Z M12.2925926,43.8670833 C12.2925926,36.9315833 17.9925926,31.2876667 25,31.2876667 C32.0055556,31.2876667 37.7064815,36.9306667 37.7064815,43.8670833 C37.7064815,46.596 36.8222222,49.1195833 35.3268519,51.1820833 C35.1925926,48.62 33.8601852,47.66025 33.8601852,47.66025 C33.3064815,46.43925 29.9175926,45.3814167 29.9175926,45.3814167 C28.6518519,44.9423333 28.2666667,44.5005 28.1490741,44.2759167 C28.1361111,44.2484167 28.1268519,44.2236667 28.1175926,44.2025833 L28.1175926,44.1934167 C28.1175926,44.1934167 28.1092593,44.1659167 28.0981481,44.12375 L28.0981481,44.1228333 C28.0481481,43.9495833 27.9277778,43.505 27.9277778,43.3959167 C27.9277778,43.3959167 27.9203704,43.4316667 27.9083333,43.4921667 C27.8981481,43.3849167 27.8953704,43.2703333 27.9018519,43.1465833 C27.9018519,43.1465833 27.8925926,43.1585 27.8722222,43.17775 C28.2935185,42.6451667 28.6333333,42.0355833 28.8601852,41.4159167 C29.2453704,41.0345833 29.4425926,40.1069167 29.4425926,40.1069167 C29.6981481,39.3974167 29.6231481,39.0344167 29.5055556,38.8510833 C29.5425926,38.7429167 30.1555556,36.861 29.2888889,35.4099167 C29.2888889,35.4099167 28.9796296,34.03675 27.3472222,33.4271667 C25.837037,32.5123333 23.587963,33.0614167 23.587963,33.0614167 C20.8462963,33.5188333 20.2592593,36.7115833 20.2592593,36.7115833 C20.0953704,38.1690833 20.4907407,39.0811667 20.5064815,39.11875 C20.3666667,39.4634167 20.6212963,40.3663333 20.6212963,40.3663333 C20.7092593,40.91725 20.9814815,41.0840833 21.0611111,41.1216667 C21.2518519,41.8064167 21.5814815,42.47375 21.9962963,43.05125 C21.9935185,43.0485 21.9907407,43.04575 21.987037,43.043 C21.987037,43.043 22.0333333,43.2666667 21.9907407,43.5801667 C21.9842593,43.5480833 21.9814815,43.5279167 21.9814815,43.5279167 C21.9814815,43.6571667 21.8240741,44.1228333 21.8046296,44.18425 C21.8037037,44.1879167 21.8018519,44.1906667 21.8,44.1943333 C21.6712963,44.363 21.5462963,44.5151667 21.4203704,44.6545 C20.3981481,45.4364167 17.9444444,46.1725 17.9444444,46.1725 C16.8759259,46.5795 16.4231481,47.1890833 16.4231481,47.1890833 C15.3101852,48.8198333 14.8907407,50.4496667 14.7388889,51.271 C13.2027778,49.1956667 12.2925926,46.6354167 12.2925926,43.8670833 L12.2925926,43.8670833 Z" id="Shape" fill="#474044"></path>
                <path d="M44.6361111,0.458333333 L5.36388889,0.458333333 C2.69444444,0.458333333 0.530555556,2.59966667 0.530555556,5.24241667 L0.530555556,82.7585 C0.530555556,85.3994167 2.69351852,87.5425833 5.36388889,87.5425833 L44.637037,87.5425833 C47.3055556,87.5425833 49.4694444,85.3994167 49.4694444,82.7585 L49.4694444,5.24241667 C49.4685185,2.59966667 47.3046296,0.458333333 44.6361111,0.458333333 L44.6361111,0.458333333 Z M20.2944444,4.07458333 L29.7138889,4.07458333 C29.9972222,4.07458333 30.2268519,4.30191667 30.2268519,4.58241667 C30.2268519,4.862 29.9972222,5.08933333 29.7138889,5.08933333 L20.2944444,5.08933333 C20.0111111,5.08933333 19.7824074,4.862 19.7824074,4.58241667 C19.7824074,4.30191667 20.0111111,4.07458333 20.2944444,4.07458333 L20.2944444,4.07458333 Z M25.0425926,83.90525 C23.4416667,83.90525 22.1435185,82.6219167 22.1435185,81.0351667 C22.1435185,79.4484167 23.4407407,78.1641667 25.0425926,78.1641667 C26.6444444,78.1641667 27.9416667,79.4484167 27.9416667,81.0351667 C27.9416667,82.6219167 26.6435185,83.90525 25.0425926,83.90525 L25.0425926,83.90525 Z M44.9324074,74.5305 L5.06666667,74.5305 L5.06666667,8.68633333 L44.9333333,8.68633333 L44.9333333,74.5305 L44.9324074,74.5305 Z" id="Shape" fill="#474044"></path>
            </g>
        </g>
    </g>
</svg>