<?xml version="1.0" encoding="UTF-8" standalone="no"?>
<svg width="86px" height="88px" viewBox="0 0 86 88" version="1.1" xmlns="http://www.w3.org/2000/svg" xmlns:xlink="http://www.w3.org/1999/xlink" xmlns:sketch="http://www.bohemiancoding.com/sketch/ns">
    <!-- Generator: Sketch 3.3.2 (12043) - http://www.bohemiancoding.com/sketch -->
    <title>noun_31432_cc</title>
    <desc>Created with Sketch.</desc>
    <defs></defs>
    <g id="Page-1" stroke="none" stroke-width="1" fill="none" fill-rule="evenodd" sketch:type="MSPage">
        <g id="noun_31432_cc" sketch:type="MSLayerGroup" fill="#474044">
            <path d="M0,35.529588 C0,40.6105324 3.43294531,44.8438849 8.0625,46.064772 L8.0625,81.9355805 L2.6875,81.9355805 C1.20719141,81.9355805 0,83.1564676 0,84.6653448 C0,86.174222 1.20735938,87.3951091 2.6875,87.3951091 L83.3125,87.3951091 C84.8032227,87.3951091 86,86.174222 86,84.6653448 C86,83.1564676 84.8032227,81.9355805 83.3125,81.9355805 L77.9375,81.9355805 L77.9375,46.064772 C82.5672227,44.8438849 86,40.6105324 86,35.529588 L86,32.7998237 L0,32.7998237 L0,35.529588 L0,35.529588 Z M53.75,46.4486451 C59.6918945,46.4486451 64.5,41.5596373 64.5,35.529588 C64.5,40.6105324 67.9329453,44.8438849 72.5625,46.064772 L72.5625,81.9355805 L32.25,81.9355805 L32.25,46.4486451 C38.1918945,46.4486451 43,41.5596373 43,35.529588 C43,41.5596373 47.8186875,46.4486451 53.75,46.4486451 L53.75,46.4486451 Z M29.5625,46.064772 L29.5625,81.9355805 L13.4375,81.9355805 L13.4375,46.064772 C18.0672227,44.8438849 21.5,40.6105324 21.5,35.529588 C21.5,40.6105324 24.9329453,44.8438849 29.5625,46.064772 L29.5625,46.064772 Z M75.25,8.23194536 L10.75,8.23194536 L0,30.0700595 L86,30.0700595 L75.25,8.23194536 L75.25,8.23194536 Z M22.7073594,14.2993583 L17.3323594,25.2184153 C17.0908203,25.698342 16.6184922,25.9755837 16.125,25.9755837 C15.9254531,25.9755837 15.7208672,25.9329311 15.5265273,25.8315886 C14.8650664,25.495657 14.5921172,24.6746804 14.9280547,24.0028172 L20.3030547,13.0837601 C20.6389922,12.4118969 21.4420508,12.1401147 22.1035117,12.4705868 C22.7703477,12.8065184 23.0327148,13.627495 22.7073594,14.2993583 L22.7073594,14.2993583 Z M33.4573594,14.2993583 L28.0823594,25.2184153 C27.8408203,25.698342 27.3684922,25.9755837 26.875,25.9755837 C26.6754531,25.9755837 26.4708672,25.9329311 26.2765273,25.8315886 C25.6150664,25.495657 25.3421172,24.6746804 25.6780547,24.0028172 L31.0530547,13.0837601 C31.3889922,12.4118969 32.1974258,12.1401147 32.8535117,12.4705868 C33.5203477,12.8065184 33.7827148,13.627495 33.4573594,14.2993583 L33.4573594,14.2993583 Z M44.34375,24.610531 C44.34375,25.3676993 43.7452773,25.9754131 43,25.9754131 C42.2599297,25.9754131 41.65625,25.3675287 41.65625,24.610531 L41.65625,13.6914739 C41.65625,12.9343055 42.2599297,12.3265918 43,12.3265918 C43.7454453,12.3265918 44.34375,12.9344761 44.34375,13.6914739 L44.34375,24.610531 L44.34375,24.610531 Z M59.7758789,25.8048028 C59.565918,25.9221827 59.345375,25.9754131 59.125,25.9754131 C58.6525039,25.9754131 58.1905898,25.7194977 57.9492188,25.2663568 L52.0703125,14.3472998 C51.7133789,13.686185 51.95475,12.8544599 52.6057969,12.497202 C53.2462617,12.1346552 54.0755234,12.3692443 54.432457,13.035648 L60.3113633,23.9547051 C60.6577148,24.6158199 60.4267578,25.4475449 59.7758789,25.8048028 L59.7758789,25.8048028 Z M70.4734727,25.831418 C70.2845078,25.9327605 70.0849609,25.9754131 69.875,25.9754131 C69.3815078,25.9754131 68.9091797,25.6981714 68.6782227,25.2182447 L63.3032227,14.2991877 C62.9672852,13.6273244 63.2402344,12.8063478 63.9016953,12.4704162 C64.5525742,12.1344846 65.3714219,12.4064374 65.7073594,13.0835895 L71.0823594,24.0026466 C71.4077148,24.6745098 71.1453477,25.495657 70.4734727,25.831418 L70.4734727,25.831418 Z M22.84375,65.9729428 L22.84375,59.6816892 C22.0563125,59.2017625 21.5,58.3700375 21.5,57.3677021 C21.5,55.8588249 22.7073594,54.6379379 24.1875,54.6379379 C25.6782227,54.6379379 26.875,55.8588249 26.875,57.3677021 C26.875,58.3700375 26.3238945,59.2017625 25.53125,59.6816892 L25.53125,65.9729428 C26.3238945,66.4528694 26.875,67.2845945 26.875,68.2869298 C26.875,69.795807 25.6782227,71.0166941 24.1875,71.0166941 C22.7071914,71.0166941 21.5,69.795807 21.5,68.2869298 C21.5,67.2844239 22.0564805,66.4526988 22.84375,65.9729428 L22.84375,65.9729428 Z M10.75,2.77241683 C10.75,1.26353963 11.9573594,0.0426525666 13.4375,0.0426525666 L72.5625,0.0426525666 C74.0532227,0.0426525666 75.25,1.26353963 75.25,2.77241683 C75.25,4.28129403 74.0532227,5.5021811 72.5625,5.5021811 L13.4375,5.5021811 C11.9573594,5.5021811 10.75,4.28129403 10.75,2.77241683 L10.75,2.77241683 Z M47.1048203,61.0624381 L45.2045898,59.1323241 L52.8051758,51.4122096 L54.7054062,53.3423235 L47.1048203,61.0624381 L47.1048203,61.0624381 Z M47.1048203,68.7825526 L45.2045898,66.8524387 L60.4057617,51.4122096 L62.3059922,53.3423235 L47.1048203,68.7825526 L47.1048203,68.7825526 Z M60.4057617,59.1324947 L62.3059922,61.0626087 L54.7054062,68.7827232 L52.8051758,66.8526093 L60.4057617,59.1324947 L60.4057617,59.1324947 Z" id="Shape" sketch:type="MSShapeGroup"></path>
        </g>
    </g>
</svg>