<?xml version="1.0" encoding="UTF-8" standalone="no"?>
<svg width="63px" height="93px" viewBox="0 0 63 93" version="1.1" xmlns="http://www.w3.org/2000/svg" xmlns:xlink="http://www.w3.org/1999/xlink" xmlns:sketch="http://www.bohemiancoding.com/sketch/ns">
    <!-- Generator: Sketch 3.3.2 (12043) - http://www.bohemiancoding.com/sketch -->
    <title>noun_29171_cc</title>
    <desc>Created with Sketch.</desc>
    <defs></defs>
    <g id="Page-1" stroke="none" stroke-width="1" fill="none" fill-rule="evenodd" sketch:type="MSPage">
        <g id="noun_29171_cc" sketch:type="MSLayerGroup" fill="#000000">
            <path d="M8.097,51.217 C8.54,53.849 6.887,52.998 6.373,51.135 C6.212,50.545 6.236,50.256 6.338,49.863 C5.884,48.154 5.187,46.933 4.517,46.438 C3.714,45.847 4.51,44.715 5.313,45.306 C6.338,46.062 7.145,47.549 7.657,49.334 C7.773,49.695 7.938,50.281 8.097,51.217 L8.097,51.217 Z M57.356,45.306 C56.331,46.062 55.524,47.549 55.011,49.334 C54.895,49.695 54.728,50.28 54.573,51.217 C54.131,53.848 55.782,52.998 56.294,51.135 C56.458,50.545 56.434,50.256 56.329,49.862 C56.784,48.153 57.481,46.933 58.151,46.437 C58.954,45.847 58.159,44.714 57.356,45.306 L57.356,45.306 Z M48.729,46.182 L47.433,46.553 C47.376,46.475 47.32,46.398 47.257,46.32 L47.829,46.066 C48.704,45.676 48.122,44.362 47.245,44.752 L46.092,45.265 C44.881,44.458 43.264,44.052 41.544,44.172 C38.872,44.359 36.517,45.782 35.764,47.811 C35.415,48.754 36.829,49.279 37.181,48.336 C37.568,47.295 38.733,46.315 40.369,45.887 C39.824,46.307 39.494,46.981 39.547,47.717 C39.629,48.887 40.642,49.768 41.812,49.686 C42.981,49.604 43.862,48.59 43.78,47.42 C43.727,46.648 43.267,46.003 42.626,45.677 C44.433,45.804 45.801,46.647 46.39,47.735 C46.525,48.02 46.828,48.221 47.234,48.106 L49.129,47.563 C50.048,47.299 49.651,45.916 48.729,46.182 L48.729,46.182 Z M27.141,58.799 C26.494,59.506 27.552,60.479 28.201,59.77 C28.43,59.604 28.659,59.694 28.88,59.86 C29.693,60.469 30.245,60.756 31.349,60.756 C32.009,60.756 32.517,60.631 32.935,60.438 C33.324,60.26 34.128,59.487 34.519,59.77 C35.167,60.479 36.227,59.506 35.58,58.799 C35.58,58.799 35.502,58.711 35.355,58.602 C33.818,57.477 32.875,59.319 31.349,59.319 C29.832,59.319 28.912,57.471 27.365,58.602 C27.218,58.711 27.141,58.799 27.141,58.799 L27.141,58.799 Z M60.38,52.736 C58.934,55.494 56.448,57.99 53.386,58.841 C51.282,64.728 49.49,69.533 45.008,72.966 C43.308,76.999 42.848,80.55 42.848,85.089 C42.848,85.089 42.824,85.622 42.598,86.394 C41.147,91.324 36.126,92.964 31.356,92.964 C26.586,92.964 21.566,91.322 20.115,86.394 C19.889,85.623 19.865,85.089 19.865,85.089 C19.865,80.634 19.422,77.128 17.797,73.187 C17.285,72.822 16.796,72.429 16.334,71.999 C13.843,69.681 11.796,66.062 9.214,58.839 C4.272,57.464 0.501,51.468 0.417,46.513 C0.337,41.909 4.169,40.956 7.005,43.069 C6.354,40.95 5.784,38.805 5.454,36.673 C4.142,28.184 3.01,15.145 10.642,8.011 C12.179,6.634 14.056,5.322 16.292,4.197 C16.389,4.116 16.506,4.059 16.628,4.03 C20.458,2.166 25.316,0.85 31.312,0.662 C31.312,0.662 32.347,0.63 33.914,0.74 C39.043,1.097 46.231,2.699 48.41,7.98 C48.508,7.98 48.613,8.002 48.722,8.051 C60.351,13.185 58.243,31.763 55.358,43.198 C56.461,42.231 57.841,41.702 59.505,42.162 C64.012,43.405 61.753,50.117 60.38,52.736 L60.38,52.736 Z M55.991,30.869 C54.608,31.503 52.581,32.111 51.39,32.443 L51.325,32.457 C51.853,34.808 52.64,36.935 53.573,39.238 C53.862,39.949 54.107,40.637 54.282,41.397 C54.972,38.405 55.663,34.704 55.991,30.869 L55.991,30.869 Z M56.179,25.9 C54.07,26.847 52.146,27.88 50.493,28.937 C49.7,29.445 48.97,28.414 49.544,27.856 C48.968,28.414 49.698,29.447 50.454,28.962 C50.717,29.456 50.882,30.032 50.979,30.656 L51.043,31.045 C52.414,30.659 55.033,29.867 56.076,29.196 C56.167,28.085 56.194,26.988 56.179,25.9 L56.179,25.9 Z M55.12,18.02 C52.79,20.758 50.669,23.733 48.891,26.851 C49.215,27.092 49.503,27.377 49.762,27.699 C51.596,26.529 53.755,25.385 56.126,24.351 C56.009,22.138 55.696,19.988 55.12,18.02 L55.12,18.02 Z M44.825,25.96 C45.872,25.821 46.808,25.905 47.618,26.182 C48.327,24.934 49.091,23.708 49.901,22.511 C49.915,19.778 50.241,16.651 50.899,13.388 C51.089,12.448 52.499,12.733 52.308,13.672 C51.834,16.015 51.537,18.285 51.409,20.377 C52.417,19.019 53.478,17.703 54.583,16.44 C53.46,13.57 51.659,11.199 48.917,9.741 C48.96,9.989 48.993,10.244 49.018,10.506 C49.26,13.179 49.177,15.555 48.806,17.66 C48.802,17.732 48.788,17.799 48.769,17.86 C48.142,21.216 46.774,23.878 44.825,25.96 L44.825,25.96 Z M17.8,5.064 C18.245,5.781 19.052,7.006 20.169,8.415 C21.968,10.681 24.542,13.387 27.693,15.239 C27.836,15.322 27.93,15.428 27.988,15.543 C32.233,18.407 36.217,21.943 38.607,25.468 C38.928,25.626 39.238,25.789 39.539,25.957 C37.035,19.724 31.137,12.625 26.046,8.603 C25.295,8.009 26.186,6.881 26.939,7.475 C32.627,11.971 39.183,20.06 41.402,26.87 C41.416,26.912 41.425,26.952 41.431,26.991 C44.449,24.904 46.548,21.875 47.353,17.587 C46.843,14.503 45.537,10.807 43.242,6.653 C42.781,5.814 44.037,5.118 44.502,5.957 C45.916,8.519 46.979,10.933 47.716,13.163 C47.709,12.355 47.666,11.513 47.586,10.636 C47.291,7.391 44.972,5.282 42.01,3.971 C43.508,9.283 43.668,14.668 43.36,18.25 C43.278,19.205 41.843,19.081 41.926,18.126 C42.257,14.311 41.876,6.839 40.3,3.32 C37.264,2.331 33.872,2.025 31.357,2.098 L30.878,2.116 C34.101,5.121 36.312,8.038 37.757,11.45 C37.846,11.505 37.926,11.586 37.993,11.695 C40.069,14.991 42.023,18.907 42.749,21.606 C42.997,22.532 41.607,22.905 41.36,21.98 C40.999,20.642 40.298,18.938 39.409,17.145 C39.523,17.789 39.624,18.453 39.71,19.139 C39.825,20.09 38.398,20.266 38.28,19.315 C37.376,11.986 34.724,7.406 28.91,2.275 C24.478,2.639 20.808,3.68 17.8,5.064 L17.8,5.064 Z M8.897,12.5 C11.215,14.214 14.448,15.926 18.23,17.344 C14.734,15.533 11.735,13.494 9.53,11.501 C9.306,11.825 9.096,12.158 8.897,12.5 L8.897,12.5 Z M5.949,25.043 C10.268,29.33 14.688,31.1 20.301,31.252 C20.407,31.255 20.501,31.275 20.583,31.309 C22.021,31.18 23.506,31.142 24.975,31.096 C18.95,29.235 12.224,25.831 8.307,22.055 C7.618,21.389 8.615,20.354 9.305,21.019 C10.942,22.598 13.106,24.113 15.51,25.469 C22.494,25.408 30.384,25.925 36.679,29.126 C36.755,29.165 36.82,29.209 36.87,29.26 C37.966,28.877 38.997,28.427 39.956,27.902 C39.927,27.888 39.897,27.87 39.868,27.85 C37.735,26.414 34.843,25.359 31.139,24.24 C30.221,23.963 30.638,22.586 31.557,22.864 C33.121,23.338 34.578,23.809 35.912,24.315 C31.671,19.306 24.518,14.514 18.832,12.179 C17.945,11.815 18.491,10.485 19.377,10.848 C19.891,11.059 20.416,11.289 20.95,11.536 C19.209,9.696 17.648,7.664 16.489,5.709 C14.568,6.721 12.949,7.873 11.613,9.068 C11.179,9.474 10.775,9.902 10.398,10.35 C15.306,14.841 23.365,18.686 29.788,20.206 C30.754,20.435 30.531,21.73 29.543,21.621 C22.706,20.864 13.826,17.863 8.216,13.784 C6.623,17.142 6.02,21.084 5.949,25.043 L5.949,25.043 Z M18.288,26.917 C22.129,28.766 26.265,30.17 29.694,30.794 C31.525,30.593 33.259,30.289 34.882,29.863 C29.85,27.638 23.874,27.017 18.288,26.917 L18.288,26.917 Z M7.974,41.052 C8.151,40.334 8.39,39.639 8.661,38.918 C8.04,37.027 7.78,35.011 7.929,33.028 C7.999,32.072 9.433,32.179 9.363,33.135 C9.217,35.098 9.517,37.084 10.19,38.928 C11.179,35.118 13.324,33.209 16.007,32.229 C12.325,31.49 9.081,29.848 5.958,27.03 C6.036,30.34 6.433,33.593 6.874,36.455 C7.054,37.613 7.472,39.277 7.974,41.052 L7.974,41.052 Z M42.948,74.334 C42.677,74.49 42.396,74.644 42.107,74.791 C40.059,75.845 37.915,76.726 35.944,77.922 C34.523,78.785 32.928,78.787 31.3,78.804 C28.134,78.777 28.11,78.627 25.771,77.406 C23.844,76.395 21.746,75.528 19.8,74.444 C20.965,77.899 21.299,81.151 21.301,85.048 C21.699,89.854 27.28,91.528 31.355,91.528 C35.43,91.528 41.011,89.852 41.411,85.048 C41.413,81.109 41.753,77.83 42.948,74.334 L42.948,74.334 Z M60.747,46.491 C60.814,42.544 57.212,42.679 55.288,45.443 C54.901,46 54.551,46.631 54.267,47.276 C54.252,47.317 54.239,47.354 54.217,47.389 C54.134,47.587 54.056,47.788 53.987,47.991 C53.954,48.088 53.924,48.184 53.893,48.28 C53.577,49.246 52.227,48.815 52.518,47.86 L52.565,47.714 C52.659,47.431 52.784,47.026 52.936,46.523 C53.614,41.478 52.37,40.683 50.892,36.389 C50.413,34.998 49.939,33.261 49.56,30.883 C49.091,27.92 46.696,25.959 41.817,28.457 C38.257,30.756 33.618,31.942 28.381,32.37 C25.266,32.625 22.47,32.593 20.613,32.682 C15.623,32.924 12.106,35.508 11.372,40.297 C11.269,40.957 11.273,41.381 11.273,41.381 C11.282,42.275 10.442,42.531 9.953,41.783 C9.952,41.782 9.757,41.487 9.489,40.946 C9.116,42.242 8.966,43.535 9.24,45.26 C9.491,46.047 9.732,46.793 9.949,47.457 L10.075,47.842 C10.37,48.816 9.023,49.242 8.71,48.293 L8.66,48.144 C8.608,47.99 8.51,47.715 8.363,47.375 C7.567,45.51 5.943,42.866 3.476,43.547 C0.267,44.433 2.621,50.406 3.493,52.067 C4.667,54.305 7.181,57.043 9.879,57.524 C10.032,57.55 10.385,57.846 10.437,57.994 C13.069,65.432 15.052,68.844 17.313,70.948 C20.149,73.588 24.132,74.705 27.402,76.692 C28.556,77.393 29.994,77.354 31.296,77.366 C34.246,77.34 34.031,77.248 36.16,76.133 C39.16,74.563 42.775,73.289 45.285,70.95 C47.548,68.846 49.531,65.43 52.162,57.996 C52.306,57.594 54.515,56.858 54.918,56.621 C58.13,54.733 60.685,50.217 60.747,46.491 L60.747,46.491 Z M49.258,40.771 C47.604,39.834 45.9,39.354 43.786,39.271 C40.601,39.144 37.571,40.125 34.969,41.872 C33.46,42.885 34.534,45.19 36.042,44.177 C38.182,42.742 43.704,40.52 48.614,41.964 C50.159,42.419 50.651,41.562 49.258,40.771 L49.258,40.771 Z M40.685,65.23 C40.576,65.277 40.445,65.32 40.297,65.363 C38.495,66.033 37.78,67.554 36.18,68.658 C34.845,69.773 33.363,70.633 31.447,70.668 L31.29,70.668 C29.089,70.627 27.464,69.502 25.971,68.148 C25.372,67.664 24.756,67.074 24.05,66.375 C23.593,65.922 23.048,65.586 22.447,65.365 C22.297,65.322 22.165,65.277 22.051,65.23 C21.195,64.876 21.698,63.56 22.585,63.892 L22.639,63.91 L22.781,63.957 C25.04,64.64 28.612,63.135 31.363,64.431 C34.115,63.133 37.697,64.642 39.957,63.957 L40.098,63.91 L40.153,63.892 C41.038,63.561 41.542,64.877 40.685,65.23 L40.685,65.23 Z M30.65,69.127 C30.281,69.073 30.025,69.061 29.665,68.922 C29.139,68.721 28.837,69.512 29.363,69.713 C29.817,69.887 30.073,69.899 30.528,69.965 C31.085,70.047 31.208,69.209 30.65,69.127 L30.65,69.127 Z M37.128,65.814 C34.985,65.984 32.559,66.031 31.437,66.035 L31.309,66.035 C30.178,66.031 27.749,65.984 25.607,65.814 C26.143,66.341 26.696,66.896 27.282,67.4 C28.198,68.029 29.407,68.482 31.378,68.49 C33.337,68.48 34.54,68.027 35.456,67.398 C36.042,66.895 36.593,66.342 37.128,65.814 L37.128,65.814 Z M14.052,41.965 C18.963,40.52 24.486,42.742 26.625,44.177 C28.133,45.189 29.206,42.884 27.698,41.873 C25.097,40.126 22.068,39.146 18.883,39.272 C16.766,39.355 15.064,39.835 13.41,40.772 C12.018,41.562 12.509,42.42 14.052,41.965 L14.052,41.965 Z M23.121,47.719 C23.173,46.982 22.841,46.309 22.298,45.889 C23.931,46.318 25.099,47.297 25.486,48.338 C25.835,49.281 27.252,48.756 26.901,47.813 C26.148,45.784 23.794,44.361 21.122,44.174 C19.402,44.054 17.783,44.46 16.572,45.267 L15.419,44.754 C14.543,44.364 13.959,45.677 14.836,46.068 L15.409,46.322 C15.347,46.398 15.291,46.476 15.237,46.554 L13.94,46.183 C13.019,45.917 12.622,47.299 13.544,47.565 L15.438,48.108 C15.842,48.223 16.146,48.022 16.304,47.695 C16.866,46.65 18.235,45.807 20.043,45.68 C19.402,46.006 18.942,46.651 18.888,47.422 C18.806,48.592 19.688,49.606 20.856,49.688 C22.024,49.77 23.039,48.889 23.121,47.719 L23.121,47.719 Z" id="Shape" sketch:type="MSShapeGroup"></path>
        </g>
    </g>
</svg>