<?xml version="1.0" encoding="UTF-8" standalone="no"?>
<svg width="92px" height="94px" viewBox="0 0 92 94" version="1.1" xmlns="http://www.w3.org/2000/svg" xmlns:xlink="http://www.w3.org/1999/xlink" xmlns:sketch="http://www.bohemiancoding.com/sketch/ns">
    <!-- Generator: Sketch 3.3.2 (12043) - http://www.bohemiancoding.com/sketch -->
    <title>noun_39653_cc</title>
    <desc>Created with Sketch.</desc>
    <defs></defs>
    <g id="Page-1" stroke="none" stroke-width="1" fill="none" fill-rule="evenodd" sketch:type="MSPage">
        <g id="noun_39653_cc" sketch:type="MSLayerGroup" fill="#474044">
            <path d="M39.4180455,45.7256591 L39.4233864,45.7213864 C39.4233864,45.7213864 37.9578409,44.6051364 38.1832273,43.1855227 C38.2857727,42.5424773 40.3227955,40.3954318 40.3227955,40.3954318 L40.31425,40.3943636 C42.2262955,38.2601364 43.4215909,35.2670909 43.4215909,31.9429091 C43.4215909,25.4675909 38.90425,20.2164091 33.3336818,20.2164091 C27.7620455,20.2164091 23.2457727,25.4675909 23.2457727,31.9429091 C23.2457727,35.2670909 24.4410682,38.2612045 26.3531136,40.3943636 L26.3435,40.3954318 C26.3435,40.3954318 28.3794545,42.5424773 28.4830682,43.1855227 C28.7095227,44.6040682 27.2439773,45.7213864 27.2439773,45.7213864 L27.24825,45.7256591 C21.8208182,46.7361591 17.0428409,49.0658636 13.4954091,52.2661364 C18.31825,57.7993182 25.4141818,61.3040227 33.3315455,61.3040227 C41.2510455,61.3040227 48.3480455,57.7993182 53.1676818,52.2661364 C49.6255909,49.0658636 44.8454773,46.7361591 39.4180455,45.7256591 L39.4180455,45.7256591 Z" id="Shape" sketch:type="MSShapeGroup"></path>
            <path d="M57.1370455,10.8057273 C44.3722727,-2.2795 23.41775,-2.538 10.3357273,10.2257045 C-2.74843182,22.9883409 -3.008,43.9428636 9.75463636,57.0280909 C21.0720227,68.6274773 38.8155909,70.1272045 51.8142955,61.4247273 C51.7448636,61.88725 51.8548864,62.3732727 52.2084545,62.7353864 C52.8023636,63.34425 53.7808182,63.3592045 54.3896818,62.7620909 L80.6530682,93.0450455 C81.2971818,93.7051818 84.2229318,91.8924773 87.185,89.0030455 C90.1481364,86.1093409 92.0281364,83.2316591 91.3872273,82.5736591 C91.3850909,82.5736591 91.3840227,82.5736591 91.3829545,82.5725909 L61.7622727,55.5689545 L61.7547955,55.5753636 C61.7569318,55.5721591 61.7601364,55.5710909 61.7654773,55.5668182 C62.3754091,54.9718409 62.3882273,53.9955227 61.79325,53.3845227 C61.4375455,53.0224091 60.9579318,52.8985 60.4911364,52.9593864 C69.5076591,40.1796591 68.4522955,22.4051136 57.1370455,10.8057273 L57.1370455,10.8057273 Z M53.6953636,54.6738182 C42.2305682,65.8544773 23.8727955,65.6290909 12.6889318,54.1642955 C1.50720455,42.7027045 1.73365909,24.3427955 13.1973864,13.16 C24.6600455,1.97720455 43.0188864,2.20472727 54.2016818,13.6673864 C65.3866136,25.1311136 65.1590909,43.4899545 53.6953636,54.6738182 L53.6953636,54.6738182 Z" id="Shape" sketch:type="MSShapeGroup"></path>
        </g>
    </g>
</svg>