<?xml version="1.0" encoding="UTF-8" standalone="no"?>
<svg width="93px" height="95px" viewBox="0 0 93 95" version="1.1" xmlns="http://www.w3.org/2000/svg" xmlns:xlink="http://www.w3.org/1999/xlink" xmlns:sketch="http://www.bohemiancoding.com/sketch/ns">
    <!-- Generator: Sketch 3.3.2 (12043) - http://www.bohemiancoding.com/sketch -->
    <title>noun_55692_cc</title>
    <desc>Created with Sketch.</desc>
    <defs></defs>
    <g id="Page-1" stroke="none" stroke-width="1" fill="none" fill-rule="evenodd" sketch:type="MSPage">
        <g id="noun_55692_cc" sketch:type="MSLayerGroup" transform="translate(0.000000, -1.000000)" fill="#474044">
            <path d="M85.0607398,48.1836 C84.0805016,46.2504 81.5231473,44.0124 79.111373,42.9792 L70.5852414,39.3276 L67.9874483,38.2152 L67.9874483,42.372 L74.1470972,45.0096 L76.6834232,46.0968 C77.5730784,46.4784 78.6196364,47.2452 79.4219436,48.0456 C79.9039749,48.5268 80.2986583,49.0212 80.5170282,49.4508 C80.5930533,49.6008 88.1373292,64.6248 88.1373292,73.5084 C88.1373292,73.944 88.0338056,74.4204 87.8866082,74.9112 C86.909605,78.1788 82.9643887,82.5012 79.362094,85.8624 C77.4549969,87.642 75.6530408,89.1504 74.452815,90.0828 C73.373906,90.9192 70.9734545,91.6812 69.4157492,91.6812 L51.0063574,91.6812 C49.8368652,91.6812 48.3778307,90.9048 48.0041755,90.0828 L37.7488777,67.5252 L37.7504953,67.5252 L31.0958746,52.8924 L30.3113605,51.1668 C30.207837,50.9388 30.1107837,50.7264 30.0185831,50.526 L29.0270219,48.3444 L28.8830596,48.0348 C28.1761881,46.1016 29.2146583,44.0328 31.4970282,42.9144 C32.9026834,42.2256 34.5849404,41.9856 36.2299937,42.2352 C37.8798997,42.486 39.2984953,43.1988 40.2285893,44.2416 L60.2490658,66.7392 L62.2742445,65.748 L64.2978056,64.7568 L63.7882759,64.1844 L58.0265455,57.7092 L56.4251661,55.9092 L62.759511,55.9092 C64.3058934,55.9092 65.5627335,54.9768 65.5627335,53.8296 L65.5627335,3.0996 C65.5627335,1.9524 64.3042759,1.02 62.759511,1.02 L16.3971536,1.02 C14.8507712,1.02 13.593931,1.9524 13.593931,3.0996 L13.593931,53.8248 C13.593931,54.972 14.8523887,55.9044 16.3971536,55.9044 L27.333442,55.9044 L28.1535423,57.7044 L31.7898056,65.6868 L23.5888025,71.7708 C22.6231223,72.4872 21.3404013,72.8808 19.975185,72.8808 C18.6115862,72.8808 17.3304828,72.4872 16.3664201,71.7732 C15.4007398,71.0568 14.8701818,70.1052 14.8701818,69.0924 C14.8701818,68.0796 15.4007398,67.1292 16.3664201,66.414 L20.7386708,63.168 L28.1017806,57.7044 L28.100163,57.7044 L21.2401129,57.7044 L18.2346959,59.9352 L14.3978558,62.7828 C12.4664953,64.2156 9.1052163,64.2168 7.1738558,62.7828 C6.2097931,62.0688 5.68085266,61.1172 5.68085266,60.1044 C5.68085266,59.0904 6.21141066,58.1388 7.1738558,57.4248 L11.2468589,54.4044 C11.2080376,54.2136 11.1675987,54.024 11.1675987,53.826 L11.1675987,49.374 L3.74302194,54.8808 C1.86180564,56.2752 0.828188088,58.1304 0.828188088,60.1056 C0.828188088,62.0808 1.8634232,63.936 3.74302194,65.3304 C5.50130408,66.6348 7.80146708,67.3824 10.2666207,67.4772 C10.1097179,68.0028 10.0207524,68.5428 10.0207524,69.0948 C10.0207524,71.0688 11.0559875,72.9252 12.9388213,74.3208 C14.8184201,75.7152 17.3191599,76.4832 19.9784201,76.4832 L19.9784201,76.4832 C21.2821693,76.4832 22.5454796,76.296 23.7182069,75.9444 C24.0320125,77.4948 24.989605,78.9264 26.5117241,80.0544 C28.3913229,81.4512 30.8920627,82.2204 33.554558,82.2204 C35.440627,82.2204 37.2409655,81.8268 38.8035235,81.1044 L43.4087022,91.2348 C44.4407022,93.5052 47.7793354,95.2824 51.0095925,95.2824 L69.4222194,95.2824 C72.3014671,95.2824 75.9749342,94.1172 77.9677618,92.5716 C79.5060564,91.3776 92.9964639,80.6964 92.9964639,73.5096 C92.9916113,63.9684 85.3858683,48.8256 85.0607398,48.1836 L85.0607398,48.1836 Z M24.4186082,49.5036 L25.6948589,52.3044 L18.4465956,52.3044 L18.4465956,4.62 L60.710069,4.62 L60.710069,52.3044 L53.22079,52.3044 L44.2757116,42.2532 C42.6322759,40.4076 40.1202132,39.1476 37.2021442,38.7036 C34.2840752,38.2584 31.3061567,38.6868 28.8199749,39.9048 C24.5706583,41.9868 22.7606144,45.9336 24.4186082,49.5036 L24.4186082,49.5036 Z M37.1633229,77.5068 C35.2335799,78.9384 31.8706834,78.9396 29.9409404,77.5068 C28.9768777,76.7916 28.4447022,75.8412 28.4463197,74.8308 C28.4463197,73.8192 28.9784953,72.8676 29.9441755,72.1512 L33.5238245,69.4956 L37.1633229,77.5068 L37.1633229,77.5068 Z" id="Shape" sketch:type="MSShapeGroup"></path>
        </g>
    </g>
</svg>