<?xml version="1.0" encoding="UTF-8" standalone="no"?>
<svg width="59px" height="97px" viewBox="0 0 59 97" version="1.1" xmlns="http://www.w3.org/2000/svg" xmlns:xlink="http://www.w3.org/1999/xlink" xmlns:sketch="http://www.bohemiancoding.com/sketch/ns">
    <!-- Generator: Sketch 3.3.2 (12043) - http://www.bohemiancoding.com/sketch -->
    <title>noun_22475_cc</title>
    <desc>Created with Sketch.</desc>
    <defs></defs>
    <g id="Page-1" stroke="none" stroke-width="1" fill="none" fill-rule="evenodd" sketch:type="MSPage">
        <g id="noun_22475_cc" sketch:type="MSLayerGroup" fill="#000000">
            <path d="M33.4327089,53.4354711 L33.1261392,53.6392893 C33.2245696,53.9016198 33.1486962,54.2166116 32.798038,54.3706942 C31.8086076,54.8046612 30.7556076,54.936314 29.6462152,54.9421653 C28.3943038,54.936314 27.3341266,54.8046612 26.3457215,54.3706942 C26.0463291,54.2370909 25.9499494,53.9845124 25.9868608,53.7553388 C25.4106329,53.3896364 24.8467089,53.0424628 24.0008228,52.8942314 C23.0759873,52.7274711 23.3302658,51.4089917 24.2551013,51.5728264 C26.476962,51.9590083 27.0808734,53.505686 29.6134051,53.505686 C31.9665063,53.505686 32.5929747,51.622562 35.1562658,51.561124 C36.0975063,51.5347934 36.135443,52.8805785 35.1952278,52.9000826 C34.5349241,52.920562 33.9781772,53.095124 33.4327089,53.4354711 L33.4327089,53.4354711 Z M39.5928101,57.6727438 C39.2985443,57.8882645 38.9581392,58.0755041 38.5705696,58.2539669 C38.4752152,58.3134545 38.3552532,58.3719669 38.2127342,58.4275537 C37.8026076,58.5835868 37.5165443,59.004876 37.1156456,59.3471736 C36.6706582,59.7206777 36.2266962,60.0405455 35.7704304,60.3165289 C34.1606835,61.3297686 32.1203038,62.3449587 29.5334304,62.3508099 C26.9506582,62.3420331 24.9092532,61.326843 23.298481,60.3165289 C22.8452911,60.0405455 22.3972278,59.7206777 21.9542911,59.3471736 C21.5523671,59.0019504 21.2673291,58.5835868 20.8582278,58.4275537 C20.7208354,58.3719669 20.6101013,58.3212562 20.5167975,58.2598182 C20.1189747,58.0901322 19.7703671,57.8941157 19.4740506,57.6707934 C18.7860633,57.173438 19.5745316,56.1904298 20.259443,56.6897355 C21.5113544,57.6035041 24.0387595,58.1427934 29.5272785,58.1427934 C35.0157975,58.1427934 37.5493544,57.6005785 38.8012658,56.6897355 C39.4913038,56.191405 40.2797722,57.1744132 39.5928101,57.6727438 L39.5928101,57.6727438 Z M35.4136203,59.0643636 C33.8694937,59.2769587 31.9449747,59.3783802 29.5303544,59.3783802 C27.1239367,59.3783802 25.2024937,59.2769587 23.6655443,59.0643636 C23.8408734,59.1882149 24.0233797,59.3062149 24.2161392,59.4125124 C24.3525063,59.4905289 24.494,59.5626942 24.6457468,59.6368099 L24.8620886,59.7343306 C25.9150886,60.1995041 27.3812911,60.5535041 29.5375316,60.5535041 C31.6917215,60.5535041 33.1568987,60.1995041 34.2109241,59.7343306 L34.4272658,59.6368099 C34.5779873,59.5626942 34.7235823,59.4905289 34.8578987,59.4125124 C35.0547595,59.3042645 35.2331646,59.1882149 35.4136203,59.0643636 L35.4136203,59.0643636 Z M39.1385949,54.7022645 C38.4598354,54.8846281 38.7458987,55.8539835 39.4226076,55.6716198 C40.2110759,55.4619504 41.0672152,56.4215537 41.1492405,57.1051736 C41.2271646,57.7761157 42.2770886,57.6600661 42.1981392,57.0008264 C42.0504937,55.7018512 40.593519,54.3141322 39.1385949,54.7022645 L39.1385949,54.7022645 Z M19.6463038,55.6716198 C20.3250633,55.8539835 20.6121519,54.8817025 19.9333924,54.7042149 C18.480519,54.3170579 17.0204684,55.7018512 16.8717975,56.9998512 C16.7969494,57.6629917 17.8478987,57.7751405 17.9196709,57.1061488 C18.0037468,56.4196033 18.8619367,55.4619504 19.6463038,55.6716198 L19.6463038,55.6716198 Z M7.87156962,45.632843 L7.86746835,45.632843 C6.91597468,43.4688595 5.14935443,41.6335207 3.34274684,42.0567603 C2.47635443,42.2605785 2.79420253,43.5000661 3.6646962,43.2972231 C4.26553165,43.1577686 5.37697468,43.8257851 6.24439241,45.3383306 C6.1756962,45.4231736 6.12237975,45.519719 6.08546835,45.632843 L6.08751899,45.6357686 C6.01062025,45.8795702 6.01267089,46.189686 6.1131519,46.525157 C6.34794937,47.2906942 7.00107595,47.9206777 7.57627848,47.8816694 C8.83741772,47.7890248 8.0325443,46.0034215 7.95872152,45.8317851 C7.93001266,45.7664463 7.90027848,45.7030579 7.87156962,45.632843 L7.87156962,45.632843 Z M7.13641772,41.5662314 L7.13641772,41.5662314 L7.13641772,41.5662314 L7.14256962,41.5720826 L7.13641772,41.5662314 L7.13641772,41.5662314 Z M9.45158228,34.017157 C10.1272658,32.3768595 10.6276203,30.6975537 9.81659494,26.0321653 C8.76872152,20.0404959 12.7838608,17.7780165 18.3390253,17.5898017 C17.5823418,18.1993058 16.9230633,18.931686 16.3796456,19.7537851 C15.2353924,21.4896529 14.4869114,23.8281983 14.7463165,25.9092893 C14.9185696,27.2745785 15.4578861,28.5618512 16.0874304,29.6911405 L16.1212658,29.7477025 C16.2443038,30.0324628 16.4503924,30.3103967 16.5713797,30.500562 C17.0481519,31.2553719 18.1308861,30.7326612 17.7627975,29.9232397 C17.6500127,29.6657851 17.550557,29.4034545 17.4644304,29.141124 C17.123,28.0830248 17.0153418,26.9537355 17.184519,25.7825124 C17.5761899,23.2069917 19.2782152,21.0907934 21.6487468,19.8864132 C23.3579494,19.021405 25.407557,18.6371736 27.5371392,18.9170579 C28.1318228,18.9999504 28.7500886,19.1345289 29.3037595,19.3061653 C29.4411519,19.3919835 29.6123797,19.4300165 29.8102658,19.380281 C29.8328228,19.3773554 29.8656329,19.3676033 29.8912658,19.3598017 L29.9476582,19.3402975 C38.9663418,16.3220331 51.1419747,16.2918017 49.4430253,26.0360661 C48.6268734,30.7024298 49.1272278,32.3807603 49.8059873,34.0210579 L49.8572532,34.1429587 C50.4457848,34.2648595 50.9851013,34.4150413 51.4587975,34.602281 C51.3408861,34.2677851 51.204519,33.9215868 51.0568734,33.5578347 C50.4796203,32.1584132 49.986443,30.7219339 50.760557,26.2486612 C52.8470759,14.3043306 37.9071899,15.3790083 29.6697975,18.0803306 C29.0556329,17.8911405 28.3727722,17.7448595 27.7155443,17.6551405 C25.3009241,17.3362479 22.9642278,17.7682645 21.0079241,18.7649256 C18.5830506,19.9956364 16.7364557,22.0903802 16.0464177,24.6737025 C16.1356203,23.189438 16.7292785,21.6252066 17.5177468,20.4383802 C19.0136835,18.1729752 21.4693165,16.7589256 24.3812152,16.845719 C25.2742658,16.8710744 25.3183544,15.5925785 24.4232532,15.5681983 C22.9662785,15.5252893 21.6138861,15.8012727 20.4009367,16.3337355 L20.340443,16.3298347 C13.6892152,16.0401983 7.08617722,18.2119835 8.48675949,26.2447603 C9.26907595,30.7190083 8.77487342,32.1564628 8.2006962,33.5539339 C8.04689873,33.9206116 7.91463291,34.2687603 7.79467089,34.6013058 C8.26836709,34.4160165 8.81178481,34.2619339 9.40339241,34.1419835 L9.45158228,34.017157 L9.45158228,34.017157 Z M55.9455823,42.0567603 C54.14,41.6335207 52.3764557,43.4698347 51.4198354,45.632843 L51.4198354,45.6357686 C51.3931772,45.7020826 51.3613924,45.7674215 51.3357595,45.8317851 C51.2578354,46.0034215 50.456038,47.7880496 51.7161519,47.8816694 C52.2903291,47.9216529 52.9434557,47.289719 53.1782532,46.525157 C53.2787342,46.189686 53.2828354,45.8795702 53.2018354,45.632843 L53.1997848,45.632843 C53.168,45.519719 53.109557,45.4231736 53.0439367,45.3383306 C53.9123797,43.8248099 55.0217722,43.1577686 55.6226076,43.2972231 C56.4931013,43.4990909 56.8109494,42.2615537 55.9455823,42.0567603 L55.9455823,42.0567603 Z M58.6452405,44.9053388 C58.5816709,45.1510909 58.5047722,45.3987934 58.4186456,45.6347934 L58.4186456,45.6347934 C57.9500759,46.9864298 57.2333797,48.2376198 56.4684937,49.4566281 C55.3447468,51.2480826 54.2773924,52.4826942 53.0798228,53.0726942 C52.2554684,53.4803306 51.4157342,53.5622479 50.5401139,53.3789091 C49.6409114,59.6173058 47.3790633,63.6790413 44.5963544,66.3238017 C44.5420127,67.1459008 44.2016076,68.0304132 44.1021519,68.8759174 C44.6650506,69.525405 45.1756582,70.1553884 45.5601519,71.0779339 L45.5601519,71.0779339 C45.654481,71.300281 45.738557,71.5382314 45.8144304,71.7976364 L50.0694937,88.0884628 C50.313519,89.0217355 49.4071392,89.0636694 48.9262658,88.6940661 C48.123443,88.1245455 45.6083418,86.0873388 43.0368481,84.3212397 L30.7761139,95.9847107 C30.2070633,96.5308264 29.2812025,96.5308264 28.7090759,95.9847107 L16.3806709,84.2627273 C13.7855949,86.0424793 11.2274304,88.1186942 10.4123038,88.6950413 C9.92732911,89.0626942 9.02197468,89.0227107 9.26497468,88.0874876 L13.520038,71.7986116 C13.5959114,71.536281 13.6830633,71.2983306 13.7732911,71.0789091 L13.7712405,71.0789091 C14.1547089,70.1563636 14.6694177,69.5244298 15.2333418,68.8749421 C15.1318354,68.0518678 14.8037342,67.1897851 14.7411899,66.3871901 C11.9266962,63.743405 9.63716456,59.6680165 8.72770886,53.3769587 C7.53321519,53.6227107 6.43920253,53.3750083 5.39440506,52.5724132 C4.21836709,51.6752231 3.0976962,50.0778347 1.83553165,47.8143802 L1.72787342,47.6173884 C1.38336709,46.9913058 1.08705063,46.3232893 0.85635443,45.6308926 L0.858405063,45.6308926 C-0.121797468,42.716 0.0525063291,39.5407273 2.44149367,38.6113554 C3.59087342,38.1647107 4.811,38.3724298 5.86297468,38.8961157 C4.49007595,28.0449917 4.46444304,20.409124 5.9265443,15.0698678 C5.08373418,15.580876 4.37421519,16.1572231 3.89641772,16.7013884 C3.81336709,16.8320661 3.69648101,16.9198347 3.56729114,16.9607934 C3.38581013,17.0183306 3.17664557,17.0007769 3.00746835,16.9139835 C2.83624051,16.8310909 2.705,16.6857851 2.66296203,16.4936694 C2.63117722,16.3668926 2.6424557,16.2245124 2.71422785,16.0870083 C3.56421519,13.6782479 5.72250633,11.2119504 8.68977215,9.34638017 C8.89586076,9.09380165 9.104,8.84414876 9.32546835,8.60912397 C8.41396203,8.7612562 7.58960759,9.01578512 6.95493671,9.32785124 C6.8236962,9.41952066 6.68117722,9.45072727 6.54378481,9.44195041 C6.35410127,9.42927273 6.17159494,9.33077686 6.05060759,9.18839669 C5.92859494,9.04991736 5.864,8.8646281 5.90808861,8.67446281 C5.92859494,8.54573554 5.99934177,8.41993388 6.12032911,8.3185124 C7.53424051,6.81279339 9.6833038,5.65424793 12.2465949,4.93844628 C12.2281392,4.7941157 12.2599241,4.64783471 12.3563038,4.52203306 C12.4311519,4.40695868 12.5490633,4.3211405 12.710038,4.27628099 C13.2667848,4.05003306 14.0747342,3.8637686 15.0272532,3.73894215 C15.0744177,3.67457851 15.1420886,3.61509091 15.2230886,3.56633058 C16.2453291,2.93634711 17.3629241,2.40193388 18.5594684,1.98844628 C20.2256076,1.41307438 21.9696709,1.07565289 23.7465443,1.09418182 C24.374038,1.10100826 24.9984557,1.1507438 25.6156962,1.24436364 C27.3382278,0.666066116 29.2186582,0.354975207 31.2067468,0.354975207 C35.305962,0.368628099 39.3815949,1.75244628 41.9305316,4.45766942 C42.615443,4.62247934 43.2685696,4.81166942 43.8929873,5.02621488 C43.8468481,4.95990083 43.8212152,4.88773554 43.8048101,4.81264463 C43.7627722,4.62833058 43.8283924,4.4401157 43.9524557,4.29578512 C44.073443,4.15438017 44.2559494,4.05783471 44.4497342,4.05100826 C44.5902025,4.04028099 44.7357975,4.07636364 44.8721646,4.17778512 C48.411557,6.27057851 50.7041646,9.09965289 52.1262785,12.4407107 C53.1710759,14.9040826 53.7401266,17.6229587 53.9933797,20.5202975 C54.3819747,24.9584628 54.0446456,29.8647273 53.5063544,34.984562 C53.3628101,36.3459504 53.2059367,37.7170909 53.0459873,39.0970083 C53.5545443,38.798595 54.0866835,38.5840496 54.6280506,38.4699504 C55.2945063,38.3256198 55.9712152,38.3392727 56.6243418,38.5430909 C59.0440886,39.294 59.343481,42.295686 58.6452405,44.9053388 L58.6452405,44.9053388 Z M20.8192658,80.4116364 C17.5536329,77.9940992 15.298962,74.5838017 15.1451646,71.2710248 C15.0252025,71.5226281 14.9185696,71.7859339 14.8283418,72.102876 L11.0449241,86.5846942 C13.5436203,84.6479339 17.8478987,81.2854215 20.8192658,80.4116364 L20.8192658,80.4116364 Z M43.0050633,67.6539835 C40.1526329,69.7340992 36.9536456,70.6137355 34.1832405,70.9999174 C34.1535063,71.0272231 34.1247975,71.0574545 34.0930127,71.0837851 L34.090962,71.0837851 C33.2153418,71.890281 31.7337595,72.1906446 29.6687722,72.1906446 C27.6017342,72.1906446 26.1160506,71.890281 25.2414557,71.0837851 L25.2394051,71.0837851 C25.2127468,71.0613554 25.1819873,71.031124 25.1563544,71.0057686 L25.0886835,70.9999174 C22.3428861,70.6176364 19.1787595,69.7526281 16.3406835,67.708595 C16.513962,68.4195207 16.6882658,69.124595 16.5580506,69.9340165 C16.4955063,70.3104463 16.4719241,70.6937025 16.4811519,71.0818347 L16.4821772,71.0818347 C16.5765063,74.4150909 19.2207975,78.1316033 23.2277342,80.4418678 C25.0497215,81.0874545 26.4913165,81.8822479 27.591481,82.8555041 C28.5460506,83.6990579 29.2237848,84.6615868 29.6697975,85.729438 C30.1127342,84.662562 30.792519,83.6990579 31.7470886,82.8555041 C32.8452025,81.8822479 34.2857722,81.0884298 36.1108354,80.4418678 C40.1157215,78.1335537 42.757962,74.4150909 42.8512658,71.0837851 L42.8512658,71.0837851 C42.8645949,70.6956529 42.8379367,70.3123967 42.7784684,69.9340165 C42.6441519,69.1021653 42.8297342,68.383438 43.0050633,67.6539835 L43.0050633,67.6539835 Z M41.9243797,83.5810579 C39.8686203,82.2479504 37.9369241,81.2542149 36.990557,81.504843 C35.1224304,82.1221488 33.669557,82.9032893 32.6626962,83.7926777 C31.1031899,85.167719 30.4039241,86.9123636 30.3393291,89.1387603 L30.3424051,89.1806942 L30.3424051,92.6056198 C30.3424051,93.4569752 29.0033418,93.4569752 29.0033418,92.6056198 L29.0033418,89.2304298 C28.9428481,86.9289421 28.2384557,85.1716198 26.6758734,83.7907273 C25.6710633,82.9032893 24.2171646,82.1221488 22.3469873,81.5028926 C21.4118987,81.2571405 19.5181392,82.2157686 17.4992911,83.5225455 L29.6595443,95.0855702 C29.7026076,95.131405 29.778481,95.131405 29.8235949,95.0855702 L41.9243797,83.5810579 L41.9243797,83.5810579 Z M38.5152025,80.4116364 C41.4855443,81.2854215 45.7918734,84.6459835 48.2895443,86.5827438 L44.5061266,72.0999504 C44.4148734,71.7859339 44.3123418,71.5226281 44.1903291,71.2690744 C44.0385823,74.5838017 41.7818608,77.9960496 38.5152025,80.4116364 L38.5152025,80.4116364 Z M54.9223165,39.7152893 C54.0015823,39.9093554 52.9854937,40.5627438 52.0811646,41.6364463 L52.0206709,41.6949587 C52.0186203,41.6969091 52.014519,41.6969091 52.0124684,41.6988595 C51.8258608,41.8753719 51.6013165,41.9095041 51.4003544,41.861719 C51.3972785,41.861719 51.3942025,41.8626942 51.3921519,41.861719 C51.3306329,41.8461157 51.2742405,41.8275868 51.2147722,41.7993058 C51.3511392,41.0513223 51.5541519,40.3716033 51.8996835,40.1278017 C52.4215696,39.6909091 52.8204177,39.2111074 52.8204177,38.5440661 L52.8204177,36.1011736 C52.8204177,35.6213719 52.5466582,35.1854545 52.1580633,34.9309256 L52.1693418,34.866562 C52.6963544,29.8276694 53.0347089,24.9955207 52.6522658,20.6334215 C52.4092658,17.8199504 51.8607215,15.2337025 50.8856456,12.9351405 C50.0028481,10.8462479 48.7611899,8.99920661 47.0642911,7.4193719 C47.5995063,8.65008264 47.9388861,9.96466116 48.0198861,11.1310083 C48.1101139,12.4904463 47.9040253,13.8791405 47.2119367,15.1186281 C46.7925823,15.8724628 45.6073165,15.2688099 46.0256456,14.5208264 C46.5711139,13.5387934 46.7587468,12.3958512 46.6808228,11.2168264 C46.5926456,9.92857851 46.1353544,8.38970248 45.414557,7.06829752 C44.7542532,6.72892562 44.0447342,6.43538843 43.286,6.17793388 C44.0283291,7.31404959 44.6055823,8.614 44.8229494,9.95393388 C44.9593165,10.794562 43.6305063,10.9896033 43.4982405,10.1499504 C43.224481,8.44821488 42.2391519,6.76110744 41.0682405,5.46310744 L40.9728861,5.35876033 C38.7428228,2.96072727 35.0424557,1.64809917 31.2077722,1.63834711 C30.202962,1.63834711 29.2217342,1.72416529 28.281519,1.88995041 C28.9633544,2.12009917 29.6246835,2.39608264 30.2562785,2.71595041 C30.3711139,2.26442975 31.0457722,1.96894215 31.4497468,2.45654545 C32.5827215,3.80915702 33.3363291,5.32852893 33.7556835,6.95322314 C34.252962,8.88315702 34.2857722,10.9554711 33.9474177,13.0833719 C33.8131013,13.9220496 32.4894177,13.7338347 32.6216835,12.8932066 C32.937481,10.8969587 32.8995443,9.00018182 32.4535316,7.26528926 C32.2494937,6.47732231 31.9644557,5.72446281 31.5861139,5.01256198 C31.5225443,4.98135537 31.4497468,4.94039669 31.3882278,4.89261157 C29.1971266,3.35763636 26.5107975,2.41071074 23.7291139,2.37267769 C22.1132152,2.35414876 20.5280759,2.66816529 19.0157342,3.19087603 C18.7030127,3.29814876 18.3984937,3.41419835 18.0929494,3.54292562 C19.2413038,3.53707438 20.4296456,3.5985124 21.5708228,3.73991736 C21.030481,3.32350413 21.5154557,2.37267769 22.2700886,2.66328926 C24.1074557,3.36933884 25.7858987,4.43719008 27.1813544,5.84928926 C28.3389367,7.02928926 29.1643165,8.33899174 29.716962,9.76181818 C30.5095316,11.7931736 30.7474051,14.042 30.5505443,16.3893223 C30.4818481,17.2367769 29.1427848,17.1402314 29.211481,16.2908264 C29.396038,14.0839339 29.1684177,12.0281983 28.4609494,10.2065124 C27.9636709,8.93484298 27.2295443,7.77239669 26.2267848,6.75233058 C26.0740127,6.5933719 25.9140633,6.44319008 25.7551392,6.29300826 C25.7223291,6.27838017 25.6905443,6.26082645 25.6556835,6.24034711 C23.9198228,5.08667769 20.0031139,4.70049587 16.9097342,4.84872727 C19.429962,5.65424793 22.005557,7.28089256 23.0083165,9.7637686 C23.3251392,10.5605124 22.0752785,11.0149587 21.7523038,10.2191901 C20.7341646,7.70120661 17.5536329,6.13697521 14.9308734,5.66107438 C12.953038,5.97606612 11.1956456,6.53290909 9.76225316,7.26041322 C12.5070253,6.92981818 15.7798354,7.36573554 17.871481,9.35320661 C18.5051266,9.95490909 17.5536329,10.8579504 16.922038,10.2581983 C15.5481139,8.94947107 13.4421139,8.44236364 11.4212152,8.44138843 C10.782443,8.97872727 9.79198734,10.1909091 9.52027848,10.360595 C7.87874684,11.379686 6.5304557,12.5733388 5.54512658,13.8020992 C7.21229114,12.8610248 9.28343038,12.1676529 11.3033038,12.1764298 C12.1963544,12.1793554 12.1871266,13.4588264 11.2951013,13.4549256 C10.0401139,13.447124 8.75334177,13.7660165 7.57832911,14.2477686 C6.02189873,18.7971074 5.75736709,25.4733719 6.78370886,35.215686 C6.57556962,35.4575372 6.44740506,35.7637521 6.44740506,36.0972727 L6.44740506,38.5430909 C6.44740506,39.2081818 6.84625316,39.6879835 7.36608861,40.1258512 C7.86336709,40.4749752 7.97205063,41.182 8.03664557,41.8041818 C7.99973418,41.823686 7.9638481,41.8344132 7.92693671,41.8461157 C7.87772152,41.8587934 7.82748101,41.8558678 7.77724051,41.8597686 C7.69624051,41.8695207 7.61626582,41.8607438 7.53321519,41.838314 C7.48707595,41.8256364 7.43683544,41.8207603 7.39377215,41.7993058 C7.32405063,41.7612727 7.25637975,41.7066612 7.19383544,41.6344959 L7.14051899,41.5701322 L7.19178481,41.630595 C7.25227848,41.7027603 7.32302532,41.7593223 7.38967089,41.795405 C7.28816456,41.7466446 7.19691139,41.6696033 7.13539241,41.564281 C6.67707595,41.030843 6.17979747,40.6017521 5.68456962,40.2828595 C4.90943038,39.7864793 3.87796203,39.435405 2.95005063,39.7952562 C1.60996203,40.3179669 1.15164557,42.7706116 2.26616456,45.6338182 L2.26411392,45.6338182 C2.44046835,46.0921653 2.65783544,46.5524628 2.91621519,47.025438 C2.93364557,47.0546942 2.94697468,47.0849256 2.95927848,47.1200331 C2.98081013,47.1463636 3.00234177,47.1756198 3.02182278,47.2107273 C4.27783544,49.470281 5.2908481,50.853124 6.23721519,51.5806281 C7.06567089,52.2135372 7.83055696,52.3334876 8.77077215,52.0438512 L8.82511392,52.0282479 C9.185,51.7259339 9.88631646,51.8244298 9.95706329,52.4271074 C11.514519,65.2169421 18.7327468,68.6126116 24.4232532,69.5956198 C24.2991899,68.8115537 25.5531519,68.5638512 25.7459114,69.3713223 C25.9643038,70.2860661 26.7066329,70.9101983 29.6677468,70.9101983 C32.6237342,70.9101983 33.3681139,70.2850909 33.585481,69.3713223 C33.7782405,68.5706777 35.0168228,68.8125289 34.9081392,69.5839174 C40.5914684,68.5843306 47.7584304,65.1672066 49.3087089,52.4271074 C49.3876582,51.8224793 50.0889747,51.7239835 50.4437342,52.0262975 L50.5021772,52.0419008 C51.246557,52.2720496 51.8576456,52.2359669 52.461557,51.9395041 C53.3023165,51.5221157 54.2066456,50.5644628 55.3150127,48.8012893 C55.9517342,47.7860992 56.5607722,46.7436033 56.9955063,45.632843 L57.0006329,45.632843 C57.1298228,45.2895702 57.2477342,44.9472727 57.3400127,44.5961983 C57.8096076,42.8496033 58.0064684,39.0638512 54.9223165,39.7152893 L54.9223165,39.7152893 Z M41.5091266,36.9886116 C36.7649873,37.3133554 35.0127215,37.9404132 34.3636962,38.6386612 C34.0561013,38.9760826 33.9545949,39.4987934 33.9494684,40.0556364 C34.3216582,40.3082149 34.8384177,40.3628264 35.3397975,40.0234545 C37.2438101,38.737157 39.6071646,37.962843 42.2760633,37.962843 C44.0621646,37.962843 45.7344557,38.3022149 47.2150127,38.9146446 C47.3882911,38.9868099 47.556443,39.0209421 47.7122911,39.024843 C46.746443,36.9154711 44.4528101,36.7838182 41.5091266,36.9886116 L41.5091266,36.9886116 Z M40.8775316,39.7455207 C38.3767848,39.7455207 36.0882785,40.8592066 35.2567468,42.6126281 C34.8661013,43.4318017 36.1549241,43.9798678 36.5394177,43.1636198 C36.9700506,42.2713058 38.121481,41.4735868 39.6717595,41.1946777 C39.1375696,41.5320992 38.7858861,42.1084463 38.7858861,42.7618347 C38.7858861,43.8023802 39.6717595,44.6488595 40.7678228,44.6488595 C41.8638861,44.6488595 42.7487342,43.8043306 42.7487342,42.7618347 C42.7487342,42.0782149 42.3642405,41.4755372 41.7869873,41.1468926 C43.4613291,41.3711901 44.682481,42.2049917 45.1397722,43.1636198 C45.5263165,43.9798678 46.8151392,43.4318017 46.4275696,42.6126281 C45.5898861,40.8709091 43.389557,39.7455207 40.8775316,39.7455207 L40.8775316,39.7455207 Z M24.9031013,38.6396364 C24.2520253,37.939438 22.5028354,37.3123802 17.7597215,36.9895868 C14.816038,36.7838182 12.5224051,36.9154711 11.556557,39.0258182 C11.7165063,39.0238678 11.8949114,38.991686 12.0712658,38.9156198 C13.5528481,38.3061157 15.2302658,37.9638182 17.0143165,37.9638182 C19.6842405,37.9638182 22.0434937,38.7381322 23.9485316,40.0244298 C24.4386329,40.3579504 24.9430886,40.3101653 25.3193797,40.0722149 L25.3152785,39.8732727 C25.3019494,39.3076529 25.184038,38.9390248 24.9031013,38.6396364 L24.9031013,38.6396364 Z M50.3986203,42.2244959 C50.2868608,43.0865785 50.1822785,44.3787273 49.5732405,45.6338182 L49.5732405,45.6338182 C48.7406835,47.3531074 46.9474051,49.0012066 42.8748481,49.380562 C37.5678101,49.8730413 34.7041013,47.7919504 33.242,45.6357686 L33.2440506,45.6318678 C32.8739114,45.0925785 32.5981013,44.5445124 32.3920127,44.0305785 C31.3759241,41.5223471 31.4025823,40.2916364 29.635962,40.2857851 C27.8724177,40.2916364 27.8939494,41.5233223 26.881962,44.0305785 C26.6768987,44.5445124 26.3949367,45.0925785 26.0268481,45.6357686 L26.0237722,45.6357686 C24.5616709,47.7939008 21.6948861,49.8730413 16.394,49.380562 C12.3193924,48.9992562 10.5261139,47.351157 9.69355696,45.6338182 L9.69458228,45.6338182 C9.0855443,44.3797025 8.98301266,43.0865785 8.87432911,42.2244959 C8.70105063,40.9323471 8.6928481,40.1239008 7.86336709,39.5426777 C7.40402532,39.1555207 7.23587342,38.8824628 7.23587342,38.5430909 L7.23587342,36.0972727 C7.23587342,35.872 7.35891139,35.6730579 7.54346835,35.5560331 C8.43036709,35.0655041 11.4960633,34.3584793 16.1561266,34.5232893 C21.5944051,34.715405 25.1081646,36.2201488 26.3590506,36.6346116 C27.5555949,37.0344463 29.4852405,37.0305455 29.6328861,37.0305455 C29.7805316,37.0305455 31.7101772,37.0344463 32.9056962,36.6346116 C34.1535063,36.221124 37.6693165,34.715405 43.1096456,34.5232893 C47.7686835,34.3584793 50.8354051,35.0655041 51.7212785,35.5560331 C51.9068608,35.6730579 52.0298987,35.872 52.0298987,36.0972727 L52.0298987,38.5430909 C52.0298987,38.8824628 51.8637975,39.1564959 51.4024051,39.5426777 C50.5749747,40.1239008 50.5647215,40.9323471 50.3986203,42.2244959 L50.3986203,42.2244959 Z M17.8191899,36.2367273 C13.7927722,35.9578182 10.2308228,36.315719 10.2708101,41.984595 C10.2861899,43.4454545 10.6440253,44.6615372 11.268443,45.6367438 L11.2674177,45.6367438 C12.5418861,47.6164132 14.8960127,48.5994215 17.6028481,48.5994215 C20.7638987,48.5994215 23.117,47.3735868 24.5042532,45.6338182 L24.5063038,45.6318678 C25.326557,44.604 25.8074304,43.3947438 25.9232911,42.1474545 C26.2442152,38.7030248 27.1731519,36.8803636 17.8191899,36.2367273 L17.8191899,36.2367273 Z M48.003481,45.632843 C48.6268734,44.6615372 48.9908608,43.4454545 49.0021392,41.984595 C49.0482785,36.3166942 45.4822278,35.9578182 41.4558101,36.2367273 C32.1059494,36.882314 33.0307848,38.704 33.3496582,42.1464793 C33.4675696,43.3947438 33.9504937,44.6030248 34.7686962,45.6308926 L34.7666456,45.632843 C36.1549241,47.3726116 38.5049494,48.5984463 41.666,48.5984463 C44.3759114,48.5984463 46.7372152,47.6125124 48.006557,45.6357686 L48.006557,45.632843 L48.003481,45.632843 L48.003481,45.632843 Z M18.4138734,39.7455207 C15.8997975,39.7455207 13.6974177,40.8709091 12.8710127,42.6126281 C12.4803671,43.4318017 13.7661139,43.980843 14.1557342,43.1636198 C14.6130253,42.2049917 15.8300759,41.3711901 17.508519,41.1468926 C16.9312658,41.4755372 16.5467722,42.0782149 16.5467722,42.7618347 C16.5467722,43.8023802 17.4316203,44.6488595 18.5256329,44.6488595 C19.6196456,44.6488595 20.5075696,43.8043306 20.5075696,42.7618347 C20.5075696,42.1074711 20.1538354,41.5320992 19.6216962,41.1946777 C21.1719747,41.4726116 22.3223797,42.2693554 22.7499367,43.1636198 C23.1375063,43.9798678 24.4222278,43.4318017 24.0367089,42.6126281 C23.2031266,40.861157 20.9146203,39.7455207 18.4138734,39.7455207 L18.4138734,39.7455207 Z" id="Shape" sketch:type="MSShapeGroup"></path>
        </g>
    </g>
</svg>