<?xml version="1.0" encoding="UTF-8" standalone="no"?>
<svg width="94px" height="96px" viewBox="0 0 94 96" version="1.1" xmlns="http://www.w3.org/2000/svg" xmlns:xlink="http://www.w3.org/1999/xlink" xmlns:sketch="http://www.bohemiancoding.com/sketch/ns">
    <!-- Generator: Sketch 3.3.2 (12043) - http://www.bohemiancoding.com/sketch -->
    <title>noun_16600_cc</title>
    <desc>Created with Sketch.</desc>
    <defs></defs>
    <g id="Page-1" stroke="none" stroke-width="1" fill="none" fill-rule="evenodd" sketch:type="MSPage">
        <g id="noun_16600_cc" sketch:type="MSLayerGroup" fill="#474044">
            <path d="M7.32907636,0.254857143 C3.32304,0.254857143 0,4.304 0,9.18285714 L0,63.112 C0,67.992 3.32304,72.04 7.32907636,72.04 L17.8104436,72.04 L18.0299782,86.9508571 L18.1763345,95.7451429 L23.3804291,89.6285714 L38.4063491,72.0388571 L86.4881673,72.0388571 C90.4951418,72.0388571 93.8172436,67.9897143 93.8172436,63.1108571 L93.8172436,9.18285714 C93.8172436,4.30285714 90.4942036,0.254857143 86.4881673,0.254857143 L7.32907636,0.254857143 L7.32907636,0.254857143 Z M7.32907636,7.93257143 L86.4881673,7.93257143 C87.1045527,7.93257143 87.5145382,8.43085714 87.5145382,9.18285714 L87.5145382,63.112 C87.5145382,63.8628571 87.1045527,64.3622857 86.4881673,64.3622857 L37.1238545,64.3622857 L35.8779491,64.3622857 L34.9613455,65.4342857 L24.2238545,78.0228571 L24.0409091,68.112 L24.00432,64.3622857 L20.8895564,64.3622857 L7.32907636,64.3622857 C6.71175273,64.3622857 6.30270545,63.8628571 6.30270545,63.112 L6.30270545,9.18285714 C6.30364364,8.43085714 6.71269091,7.93257143 7.32907636,7.93257143 L7.32907636,7.93257143 Z" id="Shape" sketch:type="MSShapeGroup"></path>
            <path d="M22.6796073,29.5108571 L16.7146473,29.0285714 L13.7377964,23.3211429 L11.5236873,29.4537143 L5.67224727,30.904 L10.25808,35.2525714 L9.68297455,41.8811429 L14.7003709,38.3668571 L20.1305673,41.0354286 L18.7064073,34.5508571 L22.6796073,29.5108571 Z" id="Shape" sketch:type="MSShapeGroup"></path>
            <path d="M38.8435418,29.5108571 L32.87952,29.0285714 L29.9026691,23.3211429 L27.68856,29.4537143 L21.8380582,30.904 L26.4229527,35.2525714 L25.8487855,41.8811429 L30.8652436,38.3668571 L36.29544,41.0354286 L34.87128,34.5508571 L38.8435418,29.5108571 Z" id="Shape" sketch:type="MSShapeGroup"></path>
            <path d="M55.0084145,29.5108571 L49.0443927,29.0285714 L46.0675418,23.3211429 L43.8534327,29.4537143 L38.0029309,30.904 L42.5887636,35.2525714 L42.01272,41.8811429 L47.0310545,38.3668571 L52.4612509,41.0354286 L51.0370909,34.5508571 L55.0084145,29.5108571 Z" id="Shape" sketch:type="MSShapeGroup"></path>
            <path d="M71.1751636,29.5108571 L65.2092655,29.0285714 L62.2333527,23.3211429 L60.0192436,29.4537143 L54.1678036,30.904 L58.7536364,35.2525714 L58.1775927,41.8811429 L63.1949891,38.3668571 L68.6251855,41.0354286 L67.2010255,34.5508571 L71.1751636,29.5108571 Z" id="Shape" sketch:type="MSShapeGroup"></path>
            <path d="M74.3424655,41.648 L74.9175709,35.0194286 L70.3317382,30.672 L76.18224,29.2205714 L78.3954109,23.088 L81.3741382,28.7965714 L87.3372218,29.2788571 L83.36496,34.3188571 L84.7900582,40.8022857 L79.3589236,38.1348571 L74.3424655,41.648 L74.3424655,41.648 Z M72.7616291,31.3645714 L76.0161818,34.4514286 L75.5958764,39.3062857 L79.2810545,36.7257143 L83.2448727,38.672 L82.20912,33.9554286 L85.0396145,30.3645714 L80.7802691,30.0194286 L78.5670982,25.7771429 L76.9224655,30.3337143 L72.7616291,31.3645714 L72.7616291,31.3645714 Z" id="Shape" sketch:type="MSShapeGroup"></path>
        </g>
    </g>
</svg>